<?xml version="1.0" encoding="UTF-8"?>
<svg id="Layer_2" data-name="Layer 2" xmlns="http://www.w3.org/2000/svg" viewBox="0 0 157.72 148.2">
  <defs>
    <style>
      .cls-1 {
        fill: #3d4e48;
      }
    </style>
  </defs>
  <g id="Logo02">
    <g>
      <g>
        <path class="cls-1" d="M150.28,29.01c-4.64-6.1-6.57-12.83-5.8-20.46.42-4.13-4.47-5.75-7.52-4.32-5.41,2.54-9.61,6.31-13.14,11.09-3.61,4.89,3.91,9.61,7.95,5.81-.95,5.13-2.21,10.2-3.75,15.18-1.07,3.46-2.29,6.88-3.64,10.25-1.28,3.18-4.22,7.02-4.78,10.34-.04.07-.08.14-.12.21-.13-.12-.28-.25-.46-.4-.4-1.48-1.56-3.05-2.21-4.43-1.6-3.44-3.05-6.94-4.36-10.51-2.51-6.81-4.47-13.78-6.03-20.86-.94-4.3-7.03-4.75-9.14-1.19-7.18,12.14-9.99,25.93-15.41,38.81-4.53,10.77-12.96,23.24-25.55,24.92-12.37,1.64-23.16-8.25-28.03-18.77-5.71-12.35-5.77-25.2-4.34-38.42.69-6.39-9.32-6.34-10,0-1.66,15.42-.94,30.68,6.35,44.76,6.33,12.23,18.84,22.5,33.1,22.59,14.86.09,26.66-10.87,33.65-23.06,6.06-10.57,8.82-22.53,13.2-33.81,1.64,5.3,3.53,10.51,5.72,15.63,2.75,6.44,7.28,18.64,16.64,15.15,3.85-1.43,5.58-5.37,7.24-8.81,2.16-4.47,4.09-9.06,5.78-13.72,1.64-4.51,2.98-9.08,4.1-13.71.59.95,1.23,1.88,1.92,2.78,3.85,5.05,12.53.08,8.63-5.05Z"/>
        <path class="cls-1" d="M51.49,20.49V4.83c0-6.43-10-6.45-10,0v15.66c0,6.43,10,6.45,10,0Z"/>
        <path class="cls-1" d="M72.75,20.49V5.95c0-6.43-10-6.45-10,0v14.54c0,6.43,10,6.45,10,0Z"/>
      </g>
      <g>
        <path class="cls-1" d="M11.44,147.85c-.47,0-1.32.06-2.53.18-1.21.12-2.11.18-2.7.18-2.66,0-4.32-.93-4.97-2.78,0-1.38,1-2.61,3.01-3.71,8.33-5.75,13.62-9.62,15.87-11.62,5.38-4.75,8.66-9.55,9.84-14.39.18-.81-.65-1.38-2.48-1.71-3.13-.47-4.7-.74-4.7-.78-1.89-.62-4.23-.93-7-.93-.83,0-2.07.04-3.72.11-1.66.07-2.87.11-3.63.11-3.01,0-5.41-.43-7.18-1.28-.83-.43-1.24-.97-1.24-1.64,0-.81.52-1.65,1.55-2.53,1.03-.88,2.11-1.41,3.24-1.6,2.36-.47,4.82-.71,7.36-.71,3.19,0,7,.38,11.44,1.14,3.84.67,7.65,1.33,11.44,2,4.43,1.19,6.5,2.85,6.21,4.99-.71,4.85-3.7,9.86-8.96,15.04-4.73,4.18-9.46,8.36-14.19,12.54,2.3.24,4.43.36,6.38.36,1.71,0,3.78-.12,6.21-.36,2.42-.24,4.31-.36,5.67-.36,2.48,0,5.38.26,8.69.78,1.77.48,2.66,1.4,2.66,2.78,0,1-.44,1.89-1.33,2.67-.89.78-2.01,1.18-3.37,1.18-4.97,0-10.23.06-15.78.18-5.56.12-10.82.18-15.78.18Z"/>
        <path class="cls-1" d="M50.27,135.88c0-.33-.03-3.11-.09-8.34-.06-3.33-.03-6.1.09-8.34.12-3.04.44-5.88.98-8.52.53-2.64,2.31-3.95,5.32-3.95,1.42,0,2.87.4,4.34,1.21.71.52,1.06,1.07,1.06,1.64,0,.14-.03.29-.09.43-1.77,4.13-2.66,9.1-2.66,14.89,0,1.85.15,5.13.44,9.83.24,4.13.32,7.39.27,9.76-.06.76-1.09,1.14-3.1,1.14-1.01,0-1.89-.17-2.66-.5-1.89-.76-3.07-2.09-3.55-3.99-.24-.81-.35-2.57-.35-5.27Z"/>
        <path class="cls-1" d="M64.73,143.64c-.47-.47-.71-.97-.71-1.5.36-2.33.71-7.1,1.06-14.32.29-5.89.92-10.67,1.86-14.32.18-.67,1.06-1,2.66-1,1.48,0,2.51.24,3.1.71,1.83,1.95,3.72,5.21,5.67,9.8,1.95,4.58,3.84,7.85,5.68,9.8.41-.9.68-1.88.8-2.92.06-.76.06-1.73,0-2.92-.06-1.61-.09-2.59-.09-2.92,0-1.61-.46-4.04-1.37-7.27-.92-3.23-1.38-5.65-1.38-7.27,0-.76.06-1.47.18-2.14.24-1.14,1.45-1.71,3.63-1.71,1.6,0,2.57.38,2.93,1.14,1.54,3.23,2.51,7.05,2.93,11.47.24,2.19.35,6.15.35,11.9,0,4.89-1.21,8.31-3.63,10.26-.83.81-2.04,1.21-3.64,1.21-1.3,0-2.28-.31-2.93-.93-1.48-1.38-3.02-3.23-4.61-5.56-1.24-1.95-2.48-3.9-3.72-5.84-.71,1.42-1.06,3.16-1.06,5.2,0,.52.03,1.29.09,2.32.06,1.02.09,1.79.09,2.32,0,1.62-.19,2.98-.58,4.1-.38,1.12-1.58,1.67-3.59,1.67-1.54,0-2.78-.43-3.72-1.28Z"/>
        <path class="cls-1" d="M94.79,143.64c-.47-.47-.71-.97-.71-1.5.36-2.33.71-7.1,1.06-14.32.29-5.89.92-10.67,1.86-14.32.18-.67,1.06-1,2.66-1,1.48,0,2.51.24,3.1.71,1.83,1.95,3.72,5.21,5.67,9.8,1.95,4.58,3.84,7.85,5.68,9.8.41-.9.68-1.88.8-2.92.06-.76.06-1.73,0-2.92-.06-1.61-.09-2.59-.09-2.92,0-1.61-.46-4.04-1.37-7.27-.92-3.23-1.38-5.65-1.38-7.27,0-.76.06-1.47.18-2.14.24-1.14,1.45-1.71,3.63-1.71,1.6,0,2.57.38,2.93,1.14,1.54,3.23,2.51,7.05,2.93,11.47.24,2.19.35,6.15.35,11.9,0,4.89-1.21,8.31-3.63,10.26-.83.81-2.04,1.21-3.64,1.21-1.3,0-2.28-.31-2.93-.93-1.48-1.38-3.02-3.23-4.61-5.56-1.24-1.95-2.48-3.9-3.72-5.84-.71,1.42-1.06,3.16-1.06,5.2,0,.52.03,1.29.09,2.32.06,1.02.09,1.79.09,2.32,0,1.62-.19,2.98-.58,4.1-.38,1.12-1.58,1.67-3.59,1.67-1.54,0-2.78-.43-3.72-1.28Z"/>
        <path class="cls-1" d="M132.82,116.64c.3-.71.95-2.97,1.95-6.77.71-2.66,1.68-4.68,2.93-6.06.65-.81,1.92-1.21,3.81-1.21,1.12,0,1.83.29,2.13.86,1.95,3.37,3.72,7.55,5.32,12.54,1.3,4.37,2.6,8.76,3.9,13.18,0,.33.4.67,1.2,1,.8.33,1.32.65,1.55.96.24.31.36.65.36,1.03s-.12.67-.36.85c-.47.9-.71,1.83-.71,2.78,0,1.09.53,2.83,1.6,5.2,1,2.19,1.39,3.92,1.15,5.2-.24,1.33-1.54,2-3.9,2-1.3,0-2.28-.36-2.93-1.07-.83-.9-1.54-2.83-2.13-5.77-.47-2.47-1.48-4.08-3.01-4.85-1.3-.57-2.81-.86-4.52-.86-2.78,0-5.14.62-7.09,1.85-.89.57-1.86,2.61-2.93,6.13-.89,3.04-2.34,4.56-4.34,4.56-.89,0-1.92-.24-3.1-.71-.18-.66-.27-1.35-.27-2.07,0-1.47.44-3.32,1.33-5.56,1.24-3.09,1.95-4.94,2.13-5.56,1.65-6.22,3.64-12.11,5.94-17.67ZM137.7,123.05c-.18.71-.65,1.88-1.42,3.49-.71,1.43-1.06,2.42-1.06,2.99s.27.97.8,1.21c1.12.48,2.51.71,4.17.71,2.42,0,3.84-.55,4.26-1.64.29-.81.44-1.66.44-2.57,0-1.57-.5-3.37-1.51-5.42-.18-.43-1.15-2.16-2.93-5.2-1.3,1.28-2.22,3.42-2.75,6.41Z"/>
      </g>
    </g>
  </g>
</svg>